<svg width="18" height="14" viewBox="0 0 18 14" fill="none" xmlns="http://www.w3.org/2000/svg">
<path d="M3.37484 0.333252H14.6248C15.3166 0.333207 15.9822 0.59788 16.485 1.07298C16.9879 1.54808 17.2898 2.19758 17.329 2.88825L17.3332 3.04158V10.9583C17.3332 11.65 17.0685 12.3156 16.5934 12.8184C16.1183 13.3213 15.4688 13.6233 14.7782 13.6624L14.6248 13.6666H3.37484C2.68306 13.6666 2.01748 13.402 1.51464 12.9269C1.01181 12.4518 0.709836 11.8023 0.670671 11.1116L0.666504 10.9583V3.04158C0.666459 2.3498 0.931132 1.68423 1.40623 1.18139C1.88133 0.678558 2.53083 0.376584 3.2215 0.337419L3.37484 0.333252H14.6248H3.37484ZM16.0832 4.81075L9.2915 8.38575C9.21482 8.42626 9.13054 8.45037 9.04402 8.45654C8.95751 8.46271 8.87066 8.4508 8.789 8.42159L8.709 8.38658L1.9165 4.81158V10.9583C1.91652 11.3242 2.05415 11.6768 2.30207 11.9461C2.54999 12.2153 2.89009 12.3815 3.25484 12.4116L3.37484 12.4166H14.6248C14.991 12.4166 15.3437 12.2788 15.6129 12.0307C15.8822 11.7826 16.0483 11.4423 16.0782 11.0774L16.0832 10.9583V4.81075ZM14.6248 1.58325H3.37484C3.00885 1.58327 2.65624 1.72089 2.38701 1.96882C2.11778 2.21674 1.95162 2.55683 1.9215 2.92159L1.9165 3.04158V3.39908L8.99984 7.12659L16.0832 3.39825V3.04158C16.0831 2.67546 15.9454 2.32274 15.6973 2.0535C15.4492 1.78425 15.1089 1.61817 14.744 1.58825L14.6248 1.58325Z" fill="#3F4E65"/>
</svg>
