<svg width="16" height="18" viewBox="0 0 16 18" fill="none" xmlns="http://www.w3.org/2000/svg">
<path d="M8 9.8335C9.38071 9.8335 10.5 8.71421 10.5 7.3335C10.5 5.95278 9.38071 4.8335 8 4.8335C6.61929 4.8335 5.5 5.95278 5.5 7.3335C5.5 8.71421 6.61929 9.8335 8 9.8335Z" stroke="#3F4E65" stroke-width="1.3" stroke-linecap="round" stroke-linejoin="round"/>
<path d="M8.00016 0.666748C6.23205 0.666748 4.53636 1.36913 3.28612 2.61937C2.03588 3.86961 1.3335 5.5653 1.3335 7.33342C1.3335 8.91008 1.6685 9.94175 2.5835 11.0834L8.00016 17.3334L13.4168 11.0834C14.3318 9.94175 14.6668 8.91008 14.6668 7.33342C14.6668 5.5653 13.9644 3.86961 12.7142 2.61937C11.464 1.36913 9.76827 0.666748 8.00016 0.666748V0.666748Z" stroke="#3F4E65" stroke-width="1.3" stroke-linecap="round" stroke-linejoin="round"/>
</svg>
